<svg width="20" height="30" viewBox="0 0 20 30" fill="none" xmlns="http://www.w3.org/2000/svg">
<path d="M17.7627 0H2.23712C1.18981 0 0.33786 0.852011 0.33786 1.89932V28.1007C0.33786 29.148 1.18987 30.0001 2.23718 30.0001H17.7627C18.81 30.0001 19.662 29.1481 19.662 28.1007V1.89932C19.662 0.852011 18.81 0 17.7627 0ZM1.28961 4.77375H18.7103V24.6138H1.28961V4.77375ZM2.23712 0.951755H17.7627C18.2852 0.951755 18.7103 1.37681 18.7103 1.89932V4.13924H1.28961V1.89932C1.28961 1.37681 1.71467 0.951755 2.23712 0.951755ZM17.7627 29.0482H2.23712C1.71467 29.0482 1.28955 28.6232 1.28955 28.1007V25.2483H18.7102V28.1007C18.7102 28.6232 18.2852 29.0482 17.7627 29.0482Z" fill="#D1A954"/>
<path d="M9.99988 25.6689C9.14045 25.6689 8.44128 26.3682 8.44128 27.2276C8.44128 28.087 9.14051 28.7862 9.99988 28.7862C10.8593 28.7862 11.5585 28.087 11.5585 27.2276C11.5585 26.3682 10.8593 25.6689 9.99988 25.6689ZM9.99988 28.1517C9.49031 28.1517 9.07579 27.7371 9.07579 27.2276C9.07579 26.718 9.49031 26.3034 9.99988 26.3034C10.5095 26.3034 10.924 26.718 10.924 27.2276C10.924 27.7371 10.5095 28.1517 9.99988 28.1517Z" fill="#D1A954"/>
<path d="M7.8427 3.02318H12.1573C12.3326 3.02318 12.4746 2.88111 12.4746 2.70592C12.4746 2.53074 12.3326 2.38867 12.1573 2.38867H7.8427C7.66745 2.38867 7.52545 2.53074 7.52545 2.70592C7.52545 2.88111 7.66745 3.02318 7.8427 3.02318Z" fill="#D1A954"/>
<path d="M6.70071 3.02318C6.78382 3.02318 6.86568 2.98955 6.92468 2.93054C6.98369 2.87089 7.01796 2.78968 7.01796 2.70592C7.01796 2.62217 6.98369 2.54095 6.92468 2.48131C6.86561 2.4223 6.78376 2.38867 6.70071 2.38867C6.61695 2.38867 6.53567 2.4223 6.47609 2.48131C6.41708 2.54032 6.38345 2.62217 6.38345 2.70592C6.38345 2.78968 6.41708 2.87089 6.47609 2.93054C6.5351 2.98955 6.61695 3.02318 6.70071 3.02318Z" fill="#D1A954"/>
</svg>
